<?xml version="1.0" encoding="utf-8"?>
<!-- Generator: Adobe Illustrator 22.0.0, SVG Export Plug-In . SVG Version: 6.00 Build 0)  -->
<svg version="1.1" id="Camada_1" xmlns="http://www.w3.org/2000/svg" xmlns:xlink="http://www.w3.org/1999/xlink" x="0px" y="0px"
	 viewBox="0 0 1920 1560" style="enable-background:new 0 0 1920 1560;" xml:space="preserve">
<style type="text/css">
	.st0{fill:#C52238;}
	.st1{fill:#801624;}
	.st2{fill:#6F6F6F;}
	.st3{fill:#584C44;}
	.st4{fill:#C62238;}
	.st5{fill:#010101;}
	.st6{fill:#010000;}
	.st7{fill:#B41F33;}
	.st8{fill:#A51C2F;}
	.st9{fill:#AD1E31;}
</style>
<g>
	<path class="st0" d="M1053.8,782c6.2,7.2,13.5,13.3,20.4,19.8c43.2,41.1,86.4,82.2,129.7,123.2c0.8,2.1-0.8,3.1-1.9,4.1
		c-18,18.3-37.2,35.5-55.1,54.1c-1,1.1-2.1,2.1-3.8,2.1c-2.8-1.3-4.8-3.6-6.7-5.9c-6.3-7.8-13.8-14.4-20.8-21.6
		c-13.9-14.4-28-28.6-41.7-43c-10.1-10.6-20.7-20.8-30.7-31.4c-21.5-22.8-43.5-45-65.3-67.5c-20-20.7-40.1-41.4-60.1-62.1
		c-21.5-22.3-43.1-44.5-64.7-66.7c-21-21.6-42-43.3-62.9-64.9c-21.3-22-42.7-44-64-66c-20.5-21.2-41-42.3-61.5-63.5
		c-20.3-20.9-40.2-42.2-60.9-62.7c-1.2-1.2-2.2-3.8-4.8-1.9c-1.5-6.1-1.5-6,4.2-5.4c25.5,2.8,51,5.7,76.5,8.3
		c3.3,0.3,5.9,1.3,8.4,3.7c83.2,79.1,166.4,158.2,249.6,237.3c6.8,6.4,13.7,12.7,20.2,19.4c2.8,2.9,4.4,2.4,7-0.1
		c52.9-50.5,105.9-100.9,158.9-151.3c37.2-35.4,74.3-70.8,111.4-106.2c2.5-2.3,5.1-3.3,8.4-3.7c25.3-2.7,50.6-5.5,76-8.3
		c6.3-0.7,6.2-0.8,4.7,5.3c-2.6-1.9-3.5,0.7-4.8,1.9c-13,12.2-24.7,25.7-37.3,38.2c-15,15-29.5,30.3-44.2,45.5
		c-19.1,19.5-38,39.2-56.9,58.9c-20.7,21.5-41.5,42.8-62.2,64.2c-19.2,19.9-38.5,39.6-57.6,59.6c-14.3,15.1-29.5,29.4-43.3,44.9
		c-2.3,2.6-2.4,4.3,0.2,6.6c11,9.9,21.2,20.7,32.3,30.5C1051.8,778.6,1053.4,779.9,1053.8,782z"/>
	<path class="st1" d="M598.9,428c0.1-1.1,0.3-2.2,0.3-2.6c10.1,9.8,20.4,19.7,30.7,29.6c0.9,0.9,1.7,2.1,2.6,3
		c19.1,19.5,38.4,38.8,57.3,58.5c20.9,21.7,41.9,43.3,62.9,64.9c20.8,21.5,41.7,43,62.5,64.5c21.8,22.5,43.6,44.9,65.4,67.4
		c20.5,21.2,41,42.3,61.5,63.5c21.2,21.9,42.4,43.7,63.6,65.6c21.1,21.8,42.2,43.5,63.3,65.2c21.3,22,42.4,44.2,64,65.9
		c3.6,3.6,6.8,7.7,10.3,11.5c0.3,1.5-0.7,2.5-1.6,3.5c-11.9,12.1-24,24.1-36,36c-1.1,1.1-2.3,2.6-4.3,1.5
		c-45.4-47.6-90.9-95.2-136.2-142.8c-3-3.2-4.6-3.6-7.9-0.1c-45.3,47.7-90.7,95.3-136.1,142.9c-2,0.6-3.1-0.9-4.2-2
		c-11.8-11.7-23.5-23.4-35.2-35.2c-1-1.1-2.1-2.1-2.3-3.8c2.4-5.5,6.9-9.4,10.9-13.4c17.4-17.3,34.1-35.2,51.2-52.6
		c20.4-20.8,40.4-41.9,60.8-62.8c4.8-4.9,9.1-10.2,14.1-14.8c2.7-2.5,2.5-4.7,0.3-7.2c-0.7-0.7-1.2-1.6-2-2.3
		c-11.5-10.9-21.7-23-33-34.1c-4.7-4.6-9.3-9.5-13.1-15c-2.9-3.2-5.7-6.5-8.7-9.6c-82.1-86.1-164.1-172.2-246.3-258.2
		c-4.4-4.6-6.6-9.3-7.2-15.6C604.2,475.6,601.4,451.8,598.9,428z"/>
	<path class="st1" d="M1053.8,782c-13.4-11.5-25.6-24.2-38.6-36.2c-2-1.9-1.7-3,0.1-4.7c7.9-8.1,15.7-16.3,23.6-24.4
		c14.6-15,29.5-29.9,43.9-45.1c19.8-20.9,40-41.4,60.1-62.1c19.7-20.3,39.4-40.7,59-61c19.9-20.6,39.8-41.2,59.7-61.7
		c19.2-19.8,38.1-40,57.7-59.5c1.3-1.3,2.6-2.5,4.3-4c0.2,1.7,0.4,2.8,0.5,3.8c-2.2,20.7-4.4,41.4-6.6,62c-0.1,0.5-0.3,1-0.2,1.5
		c1,12.9-5.8,21.6-14.3,30.5C1219.7,607.8,1136.8,694.9,1053.8,782z"/>
	<path class="st0" d="M868.7,782.9c9.6,9.8,19.5,19.5,28.8,29.6c5.4,5.9,11.1,11.5,16.6,17.2c7.7,8,7.7,7.8,0.3,15.5
		c-21.8,22.4-43.7,44.7-65.2,67.3c-19.3,20.2-38.6,40.4-58.2,60.2c-3.8,3.9-7.3,8.1-11,12.2c-2.3,0.7-3.3-1.1-4.5-2.3
		c-17.8-17.7-35.5-35.4-53.1-53.1c-1.3-1.3-3.3-2.5-2.5-5c49.1-46.8,98.2-93.6,147.4-140.4C867.6,783.6,868.2,783.3,868.7,782.9z"/>
	<path class="st2" d="M1101.3,1026.1c0.7-0.3,1.6-0.5,2.2-1.1c13.3-13.3,26.5-26.6,39.7-40c1.5-1.3,3-2.6,4.4-4
		c17.6-17.3,35.1-34.6,52.6-52c1.3-1.3,2.4-2.7,3.7-4.1c9.5-9.3,19-18.7,28.5-28c1-1,1.5-2.1,2.1-3.3c4.2-8.9,8.5-17.7,12.7-26.6
		c1.1-2.3,2.1-3.2,4.9-2.6c9,1.8,18,3.2,27.1,4.5c2.8,0.4,3.8,1.6,4.3,4.4c1.5,9.2,3.3,18.3,5.2,27.5c0.5,2.3-0.1,3.5-2.1,4.2
		c-0.2,0.1-0.3,0.1-0.5,0.2c-16.8,6.5-29.7,18.1-41.9,31c-13.1,13.9-27.1,27.1-40.6,40.7c-1.3,1.3-2.9,2.3-3.5,4.1
		c-6.5,4.8-11.7,10.9-17.3,16.6c-7.3,7.3-15.1,14.1-21.5,22.2c-4.5,2.7-7.7,6.8-11.3,10.4c-17.9,17.6-35.6,35.5-53.6,53.1
		c-2.2,2.2-2.3,4.8-3.7,7.1c-4.9,7.9-9.7,15.9-14.4,23.9c-1.2,2.1-2.3,2.6-4.8,2c-9.2-2.3-18.4-4.3-27.7-6.4
		c-2.2-0.5-3.4-1.3-3.6-3.9c-0.8-9.3-1.7-18.5-2.8-27.8c-0.3-2.5,0.7-3.5,2.8-4.4c8-3.2,17.4-4.9,23.5-10.4c6.2-5.5,12-12,17.8-18.2
		c4.9-5.2,10.1-10.1,15.2-15.2C1099.6,1028.9,1101.2,1028,1101.3,1026.1z"/>
	<path class="st2" d="M719.8,924.4c0.7,0.9,1.2,2,2,2.8c18.8,18.9,37.6,37.7,56.5,56.5c0.5,0.5,1.1,0.8,1.6,1.2
		c13.3,14.1,27,27.8,41.1,41.2c8.2,8.3,16.8,16.2,24.4,25c8.5,9.8,18.5,16.9,31,20.3c5.4,1.5,7.1,4.1,6,10
		c-1.5,7.6-1.8,15.5-2.3,23.3c-0.2,2.6-1.2,3.8-3.7,4.3c-9.3,2-18.5,4-27.7,6.4c-2.5,0.6-3.6,0-4.7-2c-4.7-8-10.3-15.7-14.2-24.1
		c-2.4-5.2-6-8.8-9.7-12.5c-19.3-19.3-38.7-38.5-58-57.8c-6.3-8.1-14.2-14.8-21.4-22.1c-5.7-5.8-11-12-17.6-16.8
		c-18.2-18.3-36.8-36.2-54.4-55.1c-9-9.7-20.6-14.2-31.7-20.2c-2.8-1.5-4.1-2.7-3.3-6.4c2-8.7,3.5-17.6,5-26.5
		c0.4-2.6,1.5-3.6,4.1-4c9.2-1.4,18.4-2.9,27.5-4.6c2.2-0.4,3.5,0,4.2,2.1c0.3,0.9,1,1.8,1.3,2.7c7.6,23.6,25.8,39,42.7,55.5
		C718.8,924.1,719.4,924.2,719.8,924.4z"/>
	<path class="st3" d="M644.1,1057.6c2-0.6,3.2-2.2,4.6-3.6c21.7-21.4,43.4-42.8,65.1-64.2c1.6,0.3,2.6,1.4,3.6,2.5
		c10.8,10.8,21.5,21.5,32.3,32.3c1,1,2.2,2.1,2.5,3.6c-22,21.7-43.9,43.5-65.9,65.2c-1.3,1.3-2.7,2.5-4,3.7
		c-1.9-0.1-2.9-1.5-4.1-2.6c-10.7-10.6-21.3-21.3-31.9-32C645.1,1061.2,642.9,1060.1,644.1,1057.6z"/>
	<path class="st3" d="M1209.2,990.8c21.6,21.6,43.2,43.2,64.8,64.8c1.2,1.2,2.3,2.3,3.9,2.9c1.2,1.8-0.3,2.8-1.2,3.8
		c-11.4,11.6-22.9,23-34.4,34.4c-0.7,0.7-1.5,1.3-2.6,1.3c-23-23-45.9-45.9-68.9-68.9c0.3-1.6,1.4-2.6,2.5-3.6
		c10.7-10.8,21.5-21.5,32.3-32.3C1206.6,992.2,1207.6,991.1,1209.2,990.8z"/>
	<path class="st4" d="M644.1,1057.6c0.4,2.2,2.2,3.2,3.6,4.6c11.5,11.6,23.1,23.2,34.6,34.9c-7.2,14.3-14.3,28.5-21.5,42.8
		c-0.9,1.9-2,2.1-3.9,1.7c-15.6-3.3-31.3-6.4-46.9-9.5c-2.2-0.4-3-1.5-3.3-3.6c-2.7-15.7-5.5-31.5-8.3-47.2
		c-0.4-2.2,0.6-2.9,2.3-3.7C615.1,1070.9,629.6,1064.2,644.1,1057.6z"/>
	<path class="st4" d="M1239.7,1098.1c11.5-11.6,23.1-23.2,34.6-34.9c1.4-1.4,3.2-2.5,3.6-4.6c14.5,6.7,29,13.4,43.5,19.9
		c2,0.9,2.6,2,2.2,4.2c-2.8,15.2-5.4,30.5-8,45.7c-0.4,2.4-0.9,4.1-4,4.7c-15.4,2.9-30.7,6.1-46,9.3c-1.9,0.4-3.3,0.8-4.5-1.5
		C1254.1,1126.6,1246.9,1112.3,1239.7,1098.1z"/>
	<path class="st5" d="M752.2,1028.2c-13.1-12.4-26-25.1-38.4-38.4c3.1-3.3,6.1-6.5,9.2-9.8c1.8-1.2,2.7,0.3,3.7,1.3
		c11.3,11.3,22.6,22.6,33.9,33.9c1,1,2.5,1.9,1.4,3.7C758.7,1022,755.5,1025.1,752.2,1028.2z"/>
	<path class="st5" d="M1209.2,990.8c-12.4,13.1-25.2,25.9-38.4,38.4c-3.2-3.1-6.5-6.2-9.7-9.3c-1.1-1.8,0.4-2.7,1.4-3.7
		c11.3-11.3,22.5-22.5,33.8-33.8c1-1,1.9-2.5,3.7-1.4C1203,984.3,1206.1,987.6,1209.2,990.8z"/>
	<path class="st6" d="M615.8,1091c1.8,7.6,3.6,15.1,5.3,22.7c0.7,3.2,1.9,5.2,5.7,5.5c4.7,0.4,9.4,1.7,14.7,2.7c-1-4.7-1.6-9-3-12.9
		c-1.8-5-0.6-8.6,4.4-11.6c2.1,9.1,4.4,18,6.2,27c0.7,3.3-3.5,5.7-6.8,5c-7.3-1.7-14.6-3.1-22-4.3c-2.9-0.5-4.2-1.6-4.8-4.6
		c-1.3-6.8-2.8-13.7-4.8-20.3c-1.4-4.4-0.2-7,3.4-9.2C614.7,1090.4,615.2,1090.4,615.8,1091z"/>
	<path class="st6" d="M623.1,1081c3.5-5.1,8.2-4.7,13.4-3.4c5.8,1.4,11.7,2.4,17.6,3.3c2.5,0.4,3.6,1.4,4.1,4
		c1.6,7.9,3.6,15.8,5.5,23.6c1,4.4-3.4,5.1-5.6,7.8c-1.7-7.6-3.7-15.2-5.1-22.9c-0.8-4.7-2.9-7.2-7.8-6.6c-2.7-0.3-5.5,0.2-8.2-0.5
		c-1.2-0.1-2.5-0.2-3.6-0.7c-1.4-2.1-3.6-1.2-5.5-1.3C625.9,1083.8,622.5,1085.4,623.1,1081z"/>
	<path class="st6" d="M615.8,1091c-0.5,0-1.1,0-1.6,0.1c2-2.3,3.9-4.5,5.9-6.8c5-1.9,9.7,0.7,14.5,1.3c2.9,0.6,6,0.5,8.5,2.3
		c6.5,0.1,8.3,4.2,9.1,9.8c0.7,4.9,1.8,9.8,3.5,14.4c1.8,5,0.8,8.6-4.4,11.4c-2-8.1-4.2-16.1-5.8-24.2c-0.6-3.2-2-4.3-5.1-4.8
		c-7.3-1.2-14.6-2.9-21.9-4.3C617.4,1090.1,616.4,1089.8,615.8,1091z"/>
	<path class="st7" d="M634.7,1086.1c-5,0.4-9.6-2.6-14.7-1.9c1-1.1,2-2.1,3.1-3.2c1,3.2,3.7,1.6,5.7,2c1.3,0.8,3.2,0.1,4.2,1.6
		c1.3,0.2,2.6,0.3,3.9,0.5C636.9,1087,635.8,1086.4,634.7,1086.1z"/>
	<path class="st8" d="M634.7,1086.1c0.8-0.1,1.7-0.2,2.2-1c2.9,0.1,5.6,0.7,8.3,1.8c-0.7,0.3-1.4,0.7-2.2,1
		C640.2,1087.8,637.4,1087.3,634.7,1086.1z"/>
	<path class="st6" d="M1307.8,1091c4.2,2.5,5.6,5.7,4.1,10.7c-2,6.6-3.6,13.4-4.8,20.3c-0.6,3-2.5,3.2-4.6,3.6
		c-6.8,1.4-13.7,2.5-20.5,4.2c-6.6,1.6-9.6-1.1-8-8c1.8-7.7,3.7-15.4,5.7-23.3c4.6,2.4,6.3,5.5,4.6,10.5c-1.5,4.3-2.1,8.9-3.1,13.8
		c5.6-1,10.8-2,15.9-3c2.4-0.4,3.5-1.6,4-4.2c1.8-8.2,4-16.4,6-24.6C1307.4,1091,1307.6,1091,1307.8,1091z"/>
	<path class="st6" d="M1271.2,1089c-2.2,9.2-4.4,18.3-6.7,27.9c-3.9-2.4-6.6-4.7-5-10.1c2-6.6,3.1-13.5,4.5-20.3
		c0.6-2.9,1.8-4.5,5-5c7.7-1.2,15.3-2.8,23-4.2c4.4-0.8,5.6,3.2,7.9,5.6c-3.9,3.8-9.2,2.9-13.8,4.1
		C1281.3,1088.1,1276.3,1089,1271.2,1089z"/>
	<path class="st6" d="M1307.8,1091c-0.2,0-0.4-0.1-0.6-0.1c-9,0.6-17.6,3.3-26.5,4.6c-2,0.3-2.6,1.5-3,3.3c-1.9,8.4-4,16.8-6.1,25.5
		c-3.9-2.5-6.5-4.9-4.8-10.3c2.5-7.9,4.2-16,6.2-24c6.9-3.5,14.6-3.4,21.9-5c2.6-0.6,5.4-1.6,8,0.1
		C1304.6,1087.1,1306.2,1089.1,1307.8,1091z"/>
	<path class="st9" d="M1302.9,1085.2c-9.2-0.2-17.9,3.2-27,4.4c-1,0.1-2,0.3-2.9,0.5c-0.4-0.8-1-1-1.8-1c7.5-3,15.6-3.2,23.4-5.1
		c1.8-0.4,3.5-0.7,5.3-1.1C1300.5,1084.2,1302.5,1083.7,1302.9,1085.2z"/>
	<path class="st6" d="M633.1,1084.6c-1.4-0.5-2.8-1-4.2-1.6C630.2,1083.7,632.7,1081.5,633.1,1084.6z"/>
</g>
</svg>
